<svg id="icon" xmlns="http://www.w3.org/2000/svg" viewBox="0 0 512 512"><defs><style>.cls-1{fill:#ffeb99;}.cls-2{fill:#eab67d;}.cls-3{fill:#999;}.cls-4{fill:gray;}.cls-5{fill:#fffbee;}.cls-6{fill:#4d4d4d;}</style></defs><title>credit card</title><rect class="cls-1" x="136.5" y="72.8" width="238.99" height="366.4" rx="21.06" transform="translate(512 0) rotate(90)"/><path class="cls-2" d="M418.14,375.5a21.06,21.06,0,0,0,21.06-21.06V161.93h0a24.39,24.39,0,0,0-24.39,24.39V340A11.1,11.1,0,0,1,403.7,351H138.45a24.39,24.39,0,0,0-24.39,24.39v.07Z"/><rect class="cls-3" x="72.8" y="189.78" width="366.4" height="53.01"/><rect class="cls-4" x="414.79" y="189.78" width="24.41" height="53.01"/><path class="cls-5" d="M93.86,136.5A21.06,21.06,0,0,0,72.8,157.56v9.74h92.51a29.84,29.84,0,0,0,29.85-29.84v-1Z"/><path class="cls-6" d="M418.14,130.27H93.86a27.32,27.32,0,0,0-27.29,27.29V354.44a27.32,27.32,0,0,0,27.29,27.29H418.14a27.32,27.32,0,0,0,27.29-27.29V189.78a6.23,6.23,0,0,0-6.23-6.23H79v-26a14.85,14.85,0,0,1,14.83-14.82H418.14A14.85,14.85,0,0,1,433,157.56v9.27a6.23,6.23,0,1,0,12.46,0v-9.27A27.32,27.32,0,0,0,418.14,130.27Zm0,239H93.86A14.85,14.85,0,0,1,79,354.44V249H433V354.44A14.85,14.85,0,0,1,418.14,369.26ZM433,196v40.54H79V196Z"/><path class="cls-6" d="M235.4,276.05H154.92a6.24,6.24,0,0,0,0,12.47H235.4a6.24,6.24,0,0,0,0-12.47Z"/><path class="cls-6" d="M272.75,279.89a7.32,7.32,0,0,0-.57-1.07,6.46,6.46,0,0,0-.78-.95,5.51,5.51,0,0,0-.95-.77,5.8,5.8,0,0,0-1.07-.57,6.08,6.08,0,0,0-1.17-.36,6.28,6.28,0,0,0-5.63,1.7,7.1,7.1,0,0,0-.77.95,7.32,7.32,0,0,0-.57,1.07,6.64,6.64,0,0,0-.48,2.39,6.14,6.14,0,0,0,.13,1.21,5.66,5.66,0,0,0,.35,1.17,6.94,6.94,0,0,0,.57,1.08,6.52,6.52,0,0,0,.77.95,6.36,6.36,0,0,0,4.41,1.82,5.61,5.61,0,0,0,1.22-.12,6.88,6.88,0,0,0,1.17-.36,5.75,5.75,0,0,0,1.07-.56,6.08,6.08,0,0,0,.95-.78,6,6,0,0,0,.78-.95,6.94,6.94,0,0,0,.57-1.08,5.66,5.66,0,0,0,.35-1.17,6.14,6.14,0,0,0,.13-1.21,6.64,6.64,0,0,0-.48-2.39Z"/><path class="cls-6" d="M303.1,279.89a7.32,7.32,0,0,0-.57-1.07,8.05,8.05,0,0,0-.78-.95,6.28,6.28,0,0,0-5.63-1.7,6.08,6.08,0,0,0-1.17.36,5.8,5.8,0,0,0-1.07.57,5.92,5.92,0,0,0-.95.77,7.17,7.17,0,0,0-.78.95,6.42,6.42,0,0,0-.56,1.07,6.38,6.38,0,0,0-.49,2.39,6.14,6.14,0,0,0,.13,1.21,5.68,5.68,0,0,0,.36,1.17,5.58,5.58,0,0,0,.57,1.08,5.92,5.92,0,0,0,.77.95,6.58,6.58,0,0,0,.95.78A5.75,5.75,0,0,0,295,288a6.88,6.88,0,0,0,1.17.36,5.61,5.61,0,0,0,1.22.12,5.52,5.52,0,0,0,1.21-.12,6.36,6.36,0,0,0,1.17-.36,5.83,5.83,0,0,0,1.08-.56,7.88,7.88,0,0,0,.95-.78,7.31,7.31,0,0,0,.78-.95,7.87,7.87,0,0,0,.56-1.08,6.36,6.36,0,0,0,.36-1.17,5.46,5.46,0,0,0,.12-1.21,5.61,5.61,0,0,0-.12-1.22A6.27,6.27,0,0,0,303.1,279.89Z"/><path class="cls-6" d="M333.51,279.89a8.36,8.36,0,0,0-.56-1.07,8.05,8.05,0,0,0-.78-.95,6.28,6.28,0,0,0-5.63-1.7,6.08,6.08,0,0,0-1.17.36,5.8,5.8,0,0,0-1.07.57,5.92,5.92,0,0,0-.95.77,7.17,7.17,0,0,0-.78.95,6.42,6.42,0,0,0-.56,1.07,6.38,6.38,0,0,0-.49,2.39,6.14,6.14,0,0,0,.13,1.21,5.68,5.68,0,0,0,.36,1.17,6.14,6.14,0,0,0,.56,1.08,6.28,6.28,0,0,0,1.73,1.73,5.75,5.75,0,0,0,1.07.56,6.88,6.88,0,0,0,1.17.36,5.61,5.61,0,0,0,1.22.12,6.34,6.34,0,0,0,4.41-1.82,7.31,7.31,0,0,0,.78-.95,7.87,7.87,0,0,0,.56-1.08,6.36,6.36,0,0,0,.36-1.17,7,7,0,0,0,.12-1.21,6.12,6.12,0,0,0-.48-2.39Z"/></svg>