<svg width="16" height="16" viewBox="0 0 16 16" fill="none" xmlns="http://www.w3.org/2000/svg">
<path fill-rule="evenodd" clip-rule="evenodd" d="M14.1222 5.89345C14.1222 8.59602 11.9313 10.7869 9.22877 10.7869C6.52619 10.7869 4.33532 8.59602 4.33532 5.89345C4.33532 3.19087 6.52619 1 9.22877 1C11.9313 1 14.1222 3.19087 14.1222 5.89345ZM15.1222 5.89345C15.1222 9.14831 12.4836 11.7869 9.22877 11.7869C7.96195 11.7869 6.7885 11.3872 5.82762 10.707L5.85405 10.7335L0.853553 15.734C0.658291 15.9292 0.341709 15.9292 0.146447 15.734C-0.0488155 15.5387 -0.0488156 15.2221 0.146447 15.0269L5.08709 10.0862C4.00554 9.01776 3.33532 7.53387 3.33532 5.89345C3.33532 2.63859 5.97391 0 9.22877 0C12.4836 0 15.1222 2.63859 15.1222 5.89345Z" fill="#F2F2F2"/>
</svg>
