<svg width="32" height="32" viewBox="0 0 32 32" fill="none" xmlns="http://www.w3.org/2000/svg">
<g clip-path="url(#clip0_26859_5685)">
<path d="M31.7938 10.9655C31.6375 10.8118 31.4189 10.739 31.2016 10.7681H22.7124V7.01703C22.7124 3.30988 19.7072 0.304688 16.0001 0.304688C12.293 0.304688 9.28776 3.30988 9.28776 7.01703V10.7681H0.798482C0.561552 10.7681 0.324697 10.7681 0.206194 10.9655C0.0470319 11.1185 -0.0268056 11.3399 0.00879055 11.5578L2.97015 27.7464C3.38385 30.0047 5.33378 31.6572 7.62932 31.6949H24.3707C26.6728 31.6383 28.6187 29.9727 29.0299 27.707L31.9912 11.5578C32.0268 11.3399 31.953 11.1185 31.7938 10.9655ZM10.8671 7.01703C10.8671 4.18218 13.1652 1.88407 16 1.88407C18.8349 1.88407 21.133 4.18218 21.133 7.01703V10.7681H10.8671V7.01703ZM27.4505 27.5095C27.1845 29.006 25.8905 30.1009 24.3707 30.1155H7.62932C6.10949 30.1009 4.81548 29.006 4.54953 27.5095L1.74613 12.3475H30.2539L27.4505 27.5095Z" fill="#191919"/>
<path d="M21.9225 20.0471C22.3586 20.0471 22.7122 19.6936 22.7122 19.2574V16.8883C22.7122 16.4522 22.3586 16.0986 21.9225 16.0986C21.4864 16.0986 21.1328 16.4522 21.1328 16.8883V19.2574C21.1327 19.6936 21.4864 20.0471 21.9225 20.0471Z" fill="#191919"/>
<path d="M10.0768 20.0471C10.5129 20.0471 10.8665 19.6936 10.8665 19.2574V16.8883C10.8665 16.4522 10.5129 16.0986 10.0768 16.0986C9.64065 16.0986 9.28711 16.4522 9.28711 16.8883V19.2574C9.28711 19.6936 9.64065 20.0471 10.0768 20.0471Z" fill="#191919"/>
</g>
<defs>
<clipPath id="clip0_26859_5685">
<rect width="32" height="32" fill="white"/>
</clipPath>
</defs>
</svg>
